<?xml version="1.0" encoding="UTF-8"?>
<svg version="1.1" xmlns="http://www.w3.org/2000/svg" width="1024" height="1024">
<path d="M0 0 C337.92 0 675.84 0 1024 0 C1024 337.92 1024 675.84 1024 1024 C686.08 1024 348.16 1024 0 1024 C0 686.08 0 348.16 0 0 Z " fill="#020914" transform="translate(0,0)"/>
<path d="M0 0 C0.92039062 0.71929687 1.84078125 1.43859375 2.7890625 2.1796875 C32.20530712 25.59923212 51.06877032 59.78957421 56 97 C56.0942627 97.70970947 56.18852539 98.41941895 56.28564453 99.15063477 C60.77501942 135.86472656 50.50262985 174.23035903 28.74609375 204.09375 C26.56963517 206.80361614 24.31811123 209.41053796 22 212 C21.14664063 212.98484375 20.29328125 213.9696875 19.4140625 214.984375 C-3.3817851 240.94837515 -37.8608289 259.06066688 -72.49121094 261.85498047 C-112.79405773 264.18467013 -151.2148588 255.30433361 -182.24609375 228.20703125 C-185.23029041 225.53819632 -188.11695084 222.77752028 -191 220 C-191.70511719 219.35804688 -192.41023438 218.71609375 -193.13671875 218.0546875 C-218.70507184 194.09408075 -232.63009699 155.94005115 -234.31640625 121.54296875 C-235.50151038 82.35709674 -221.50883087 44.78651334 -194.9375 16 C-144.723724 -36.7500319 -57.92764019 -46.597944 0 0 Z " fill="#0453BE" transform="translate(343,385)"/>
<path d="M0 0 C11.82252347 9.37246104 16.58357711 22.50146264 19 37 C19 42.28 19 47.56 19 53 C-6.41 53 -31.82 53 -58 53 C-56.28349024 67.92379911 -56.28349024 67.92379911 -51 75 C-51 75.66 -51 76.32 -51 77 C-41.0633735 82.04789721 -33.46711041 84.91673537 -22.5 81.5 C-18.26987394 80.08995798 -16.01616824 78.00709726 -12.97265625 74.875 C-8.23380375 70.53047537 -4.61724981 70.14919209 1.67773438 70.296875 C2.79470703 70.36390625 3.91167969 70.4309375 5.0625 70.5 C6.21427734 70.53609375 7.36605469 70.5721875 8.55273438 70.609375 C11.37203419 70.70296172 14.18420002 70.83389495 17 71 C17.39080267 77.57186532 16.10962337 79.95723653 11.96875 84.8046875 C10.99421875 85.89136719 10.99421875 85.89136719 10 87 C9.4946875 87.62132812 8.989375 88.24265625 8.46875 88.8828125 C0.53142661 97.91354268 -13.19525732 103.19705714 -24.94970703 104.15966797 C-41.20850405 105.07710419 -56.57850198 102.57357123 -69.25 91.75 C-81.4682832 80.16369697 -85.83160309 65.97708942 -86.28515625 49.44897461 C-86.48292972 32.63999525 -82.71101819 16.86656269 -71.29296875 4.08984375 C-52.28437296 -14.11839011 -21.03948653 -14.23595692 0 0 Z " fill="#FDFDFD" transform="translate(799,471)"/>
<path d="M0 0 C7.61694961 6.37959704 12.03873814 15.59676576 13.5625 25.3125 C13.64997331 27.95906426 13.68905469 30.578053 13.67602539 33.22387695 C13.67617142 34.00489273 13.67631744 34.78590851 13.6764679 35.59059143 C13.6757737 38.16068339 13.66800446 40.73070202 13.66015625 43.30078125 C13.65829032 45.08725444 13.65686724 46.87372814 13.65586853 48.66020203 C13.65205716 53.35374371 13.64223867 58.04725427 13.63116455 62.74078369 C13.62092075 67.53356505 13.61636455 72.32635146 13.61132812 77.11914062 C13.60061514 86.51694293 13.58302953 95.914714 13.5625 105.3125 C4.6525 105.3125 -4.2575 105.3125 -13.4375 105.3125 C-13.467229 102.24787476 -13.467229 102.24787476 -13.49755859 99.12133789 C-13.56469677 92.34390502 -13.64233184 85.56662099 -13.72502708 78.789361 C-13.77480902 74.6834197 -13.82113946 70.57750189 -13.859375 66.47143555 C-13.89645801 62.50314716 -13.94287779 58.53506447 -13.99556351 54.56695366 C-14.01398597 53.05886916 -14.02913792 51.55074078 -14.04084396 50.04258919 C-13.84747162 34.70963724 -13.84747162 34.70963724 -20.4375 21.3125 C-26.03434926 17.25478429 -31.68687014 16.67962845 -38.4375 17.3125 C-41.25458212 18.04192305 -43.80426199 19.08558471 -46.4375 20.3125 C-47.324375 20.663125 -48.21125 21.01375 -49.125 21.375 C-53.94682273 25.41490553 -56.11546822 30.82575744 -56.91421509 36.99371338 C-57.17085218 41.34043073 -57.15723423 45.68636549 -57.14453125 50.0390625 C-57.15766901 51.63904688 -57.17297955 53.23901475 -57.19035339 54.83895874 C-57.22997409 59.01793278 -57.24037888 63.1964707 -57.24438477 67.37561035 C-57.25375983 71.65288329 -57.29120036 75.92990457 -57.32617188 80.20703125 C-57.39051407 88.57556903 -57.42134652 96.94373034 -57.4375 105.3125 C-66.6775 105.3125 -75.9175 105.3125 -85.4375 105.3125 C-85.4375 69.3425 -85.4375 33.3725 -85.4375 -3.6875 C-76.1975 -3.6875 -66.9575 -3.6875 -57.4375 -3.6875 C-57.1075 0.2725 -56.7775 4.2325 -56.4375 8.3125 C-55.53 7.28125 -54.6225 6.25 -53.6875 5.1875 C-39.75615477 -8.74384523 -16.33013599 -11.16670251 0 0 Z " fill="#FCFCFC" transform="translate(586.4375,467.6875)"/>
<path d="M0 0 C22.68178885 -4.36955829 22.68178885 -4.36955829 32 0 C40.06940796 6.55750691 44.64651316 17.79147846 48.69374084 27.12158203 C49.41021534 28.77142283 50.1979542 30.39002084 51 32 C51.66 32 52.32 32 53 32 C54.63487161 29.83369521 54.63487161 29.83369521 56.30078125 27.03125 C56.94853516 25.98453125 57.59628906 24.9378125 58.26367188 23.859375 C58.93978516 22.75078125 59.61589844 21.6421875 60.3125 20.5 C60.97701172 19.42234375 61.64152344 18.3446875 62.32617188 17.234375 C62.97779297 16.17734375 63.62941406 15.1203125 64.30078125 14.03125 C64.95296631 13.00064453 65.60515137 11.97003906 66.27709961 10.90820312 C68.02365033 8.12917002 68.02365033 8.12917002 69.02172852 5.45117188 C70.09975172 2.92466882 70.77852681 1.64015039 73 0 C78.46880326 -0.98837123 83.78302601 -0.75288501 89.3125 -0.5 C90.83128707 -0.45984872 92.35017541 -0.42335074 93.86914062 -0.390625 C97.58153811 -0.30268966 101.29012855 -0.16478459 105 0 C100.78612669 6.69092642 96.49123398 13.30474951 92 19.8125 C91.46036621 20.60148682 90.92073242 21.39047363 90.36474609 22.20336914 C87.20599654 26.81837863 84.01283767 31.40672497 80.7890625 35.9765625 C79.74878906 37.46579224 79.74878906 37.46579224 78.6875 38.98510742 C77.33063099 40.9274153 75.96368235 42.8627271 74.5859375 44.7902832 C73.97234375 45.67288818 73.35875 46.55549316 72.7265625 47.46484375 C72.17564941 48.244646 71.62473633 49.02444824 71.05712891 49.82788086 C69.82365267 51.89937852 69.82365267 51.89937852 70.14916992 54.00219727 C71.16464285 56.3865918 72.41294248 58.36570339 73.88671875 60.5 C74.48871094 61.37744873 75.09070313 62.25489746 75.7109375 63.15893555 C76.36320313 64.09648682 77.01546875 65.03403809 77.6875 66 C78.35652344 66.97171143 79.02554688 67.94342285 79.71484375 68.94458008 C84.8177126 76.34170165 89.96732538 83.70749992 95.16674805 91.03710938 C99.30802542 96.90365806 103.18709503 102.91550116 107 109 C79.51837629 111.51106033 79.51837629 111.51106033 72.69628906 107.71972656 C69.27402153 104.24812905 67.70267333 99.93061236 66.03417969 95.42285156 C64.10653795 90.90681837 61.17384578 87.01178613 58.375 83 C57.33844646 81.46014698 56.30434466 79.91863887 55.2734375 78.375 C54.51596496 77.24977107 53.75829265 76.12467641 53 75 C49.38701919 79.32867868 46.29300498 83.92925549 43.1875 88.625 C42.4440332 89.74068359 42.4440332 89.74068359 41.68554688 90.87890625 C40.9343457 92.01005859 40.9343457 92.01005859 40.16796875 93.1640625 C39.64259521 93.93097412 39.11722168 94.69788574 38.57592773 95.48803711 C36.91270547 98.01937739 36.91270547 98.01937739 35.61352539 101.01391602 C34.00454884 104.2540673 32.66069782 106.5355172 30 109 C24.6227959 110.35388217 19.55467116 110.048607 14.0625 109.6875 C12.60109574 109.63225791 11.1394908 109.58207895 9.67773438 109.53710938 C6.11428651 109.41651085 2.55842937 109.22714731 -1 109 C3.02718198 100.78126126 8.70598951 93.39422124 13.95996094 85.92211914 C16.37399296 82.48709512 18.77584665 79.04362037 21.17773438 75.60009766 C22.39124255 73.86860488 23.61129784 72.14168197 24.83789062 70.41943359 C26.57535846 67.97841365 28.28954181 65.52249053 30 63.0625 C30.80195801 61.95430908 30.80195801 61.95430908 31.62011719 60.82373047 C32.09610352 60.13037598 32.57208984 59.43702148 33.0625 58.72265625 C33.48660156 58.12203369 33.91070313 57.52141113 34.34765625 56.90258789 C35.22635059 54.92680339 35.22635059 54.92680339 34.32128906 52.58203125 C32.95519612 49.91244533 31.46599175 47.45650237 29.796875 44.96484375 C29.15258545 43.9996582 28.5082959 43.03447266 27.84448242 42.04003906 C27.15330322 41.01620117 26.46212402 39.99236328 25.75 38.9375 C25.04141846 37.88143555 24.33283691 36.82537109 23.6027832 35.73730469 C12.86283679 19.52303705 12.86283679 19.52303705 1.32543945 3.87988281 C0 2 0 2 0 0 Z " fill="#FDFDFD" transform="translate(821,464)"/>
<path d="M0 0 C10.23 0 20.46 0 31 0 C35.15203771 12.36747413 39.2664816 24.74055777 43.2109375 37.17578125 C43.5544928 38.25785858 43.8980481 39.33993591 44.25201416 40.45480347 C45.65537657 44.87878929 47.05677039 49.30337906 48.45263672 53.72973633 C49.49288656 57.02559379 50.53895202 60.31955837 51.5859375 63.61328125 C51.90049896 64.61619705 52.21506042 65.61911285 52.53915405 66.65242004 C52.83351349 67.57576645 53.12787292 68.49911285 53.43115234 69.45043945 C53.81465347 70.66423027 53.81465347 70.66423027 54.2059021 71.90254211 C55.00542954 74.25098256 55.00542954 74.25098256 57 77 C65.42746095 51.45567034 73.37139966 25.79386675 81 0 C91.23 0 101.46 0 112 0 C110.43894531 4.10824219 108.87789062 8.21648437 107.26953125 12.44921875 C101.29409148 28.19267448 95.37595522 43.95739433 89.46893311 59.72662354 C88.15352947 63.23782554 86.83747926 66.74878519 85.52148438 70.25976562 C83.53663826 75.5553858 81.55210043 80.85112135 79.56787109 86.14697266 C76.71342759 93.76521654 73.85708481 101.38274634 71 109 C61.1 109 51.2 109 41 109 C33.44172167 89.1088084 25.93326698 69.19996373 18.46893311 49.27337646 C17.15352947 45.76217446 15.83747926 42.25121481 14.52148438 38.74023438 C12.53663826 33.4446142 10.55210043 28.14887865 8.56787109 22.85302734 C5.71342759 15.23478346 2.85708481 7.61725366 0 0 Z " fill="#FDFDFD" transform="translate(604,464)"/>
<path d="M0 0 C0.80260254 0.01096207 1.60520508 0.02192413 2.43212891 0.03321838 C3.03976074 0.04731247 3.64739258 0.06140656 4.2734375 0.07592773 C4.36644797 12.49857303 4.43735952 24.92113439 4.48068619 37.34405804 C4.50148928 43.11361245 4.52967319 48.88292722 4.57519531 54.65234375 C4.61891353 60.2285425 4.64262924 65.80451189 4.65294647 71.38086891 C4.66029143 73.49976012 4.67463343 75.61863991 4.69635773 77.73743248 C4.85622467 93.98757277 4.28502475 108.628151 -7.609375 121.04077148 C-13.95057096 126.9219199 -21.10162245 131.25287501 -29.9140625 131.13842773 C-30.81511719 131.1294043 -31.71617187 131.12038086 -32.64453125 131.11108398 C-33.67513672 131.09368164 -33.67513672 131.09368164 -34.7265625 131.07592773 C-34.79629544 118.89675168 -34.84949167 106.7176237 -34.88199902 94.53828812 C-34.89760659 88.88197999 -34.91875471 83.22580919 -34.95288086 77.56958008 C-34.98564994 72.10362156 -35.00345237 66.63779453 -35.01119423 61.1717453 C-35.01670637 59.09390953 -35.02746965 57.01608037 -35.04375267 54.93830109 C-35.16263186 39.12973688 -35.0443232 23.82546451 -23.8515625 11.51342773 C-17.48431396 5.46138952 -9.02696638 -0.16038543 0 0 Z " fill="#0181E2" transform="translate(271.7265625,472.924072265625)"/>
<path d="M0 0 C9.24 0 18.48 0 28 0 C28 48.51 28 97.02 28 147 C18.76 147 9.52 147 0 147 C0 98.49 0 49.98 0 0 Z " fill="#FEFEFE" transform="translate(454,426)"/>
<path d="M0 0 C1.17755859 -0.03867187 1.17755859 -0.03867187 2.37890625 -0.078125 C3.05824219 0.03015625 3.73757813 0.1384375 4.4375 0.25 C7.71912157 5.17243235 6.95398637 10.49763305 6.4375 16.25 C3.71971951 27.90866062 -2.68119592 38.41360147 -12.5625 45.25 C-21.01234269 49.85080402 -27.92143996 52.43904039 -37.5625 52.25 C-38.27772631 36.59449082 -35.89605561 24.39658542 -25 12.4375 C-24.195625 11.715625 -23.39125 10.99375 -22.5625 10.25 C-21.4796875 9.26 -21.4796875 9.26 -20.375 8.25 C-14.37470835 3.98312594 -7.47238437 0.14772424 0 0 Z " fill="#009EF4" transform="translate(275.5625,408.75)"/>
<path d="M0 0 C5.53997224 3.25772454 8.24051409 7.23634307 10.6875 13.0625 C11.375 15.9375 11.375 15.9375 11.375 20.9375 C-4.465 20.9375 -20.305 20.9375 -36.625 20.9375 C-35.60445341 11.75258065 -34.58508019 7.69957618 -28.125 1.5625 C-19.99977492 -3.7188963 -8.78220938 -4.01472429 0 0 Z " fill="#030914" transform="translate(778.625,484.0625)"/>
<path d="M0 0 C1.8359375 1.59375 1.8359375 1.59375 2.8359375 3.59375 C-1.00777814 2.22296252 -4.00240233 0.43845218 -7.2890625 -1.96875 C-9.99906303 -3.94976862 -11.9679112 -5.34086623 -15.1640625 -6.40625 C-15.1640625 -7.06625 -15.1640625 -7.72625 -15.1640625 -8.40625 C-16.01677734 -8.67888672 -16.01677734 -8.67888672 -16.88671875 -8.95703125 C-22.64421269 -10.83134063 -28.14100414 -13.06840585 -33.6796875 -15.51953125 C-35.00226563 -16.08220703 -35.00226563 -16.08220703 -36.3515625 -16.65625 C-37.17011719 -17.01203125 -37.98867188 -17.3678125 -38.83203125 -17.734375 C-41.40440894 -18.47549554 -42.67719349 -18.29809268 -45.1640625 -17.40625 C-45.4940625 -18.06625 -45.8240625 -18.72625 -46.1640625 -19.40625 C-49.92228159 -21.24784556 -53.6054648 -21.92956019 -57.7265625 -22.53125 C-58.84160156 -22.69882812 -59.95664062 -22.86640625 -61.10546875 -23.0390625 C-64.31255047 -23.48571348 -64.31255047 -23.48571348 -68.1640625 -23.40625 C-69.35902344 -23.73109375 -70.55398438 -24.0559375 -71.78515625 -24.390625 C-76.6144117 -25.65636178 -81.25779423 -25.70118234 -86.2265625 -25.65625 C-87.08572266 -25.66398437 -87.94488281 -25.67171875 -88.83007812 -25.6796875 C-92.78642443 -25.66759782 -96.30590617 -25.51074487 -100.09765625 -24.328125 C-103.1640625 -23.40625 -103.1640625 -23.40625 -106.1640625 -24.40625 C-108.82857055 -24.04657019 -111.40749647 -23.61769243 -114.0390625 -23.09375 C-114.74675781 -22.96291016 -115.45445312 -22.83207031 -116.18359375 -22.69726562 C-121.32805255 -21.70573586 -125.62711656 -20.17472297 -130.2890625 -17.84375 C-134.4251974 -15.77568255 -138.4088007 -14.93937825 -142.91015625 -14.1015625 C-145.51375889 -13.29837139 -147.01485019 -12.06755482 -149.1640625 -10.40625 C-151.10649991 -9.41609388 -153.06644899 -8.45983397 -155.0390625 -7.53125 C-159.7475584 -5.22551383 -163.26304025 -2.85366501 -167.1640625 0.59375 C-168.42226154 1.30410821 -169.69366947 1.99152518 -170.9765625 2.65625 C-174.31804265 4.1830519 -174.31804265 4.1830519 -174.7265625 6.71875 C-174.8709375 7.3375 -175.0153125 7.95625 -175.1640625 8.59375 C-176.03160156 8.84898437 -176.89914063 9.10421875 -177.79296875 9.3671875 C-181.95460344 10.88138598 -184.38017796 13.07526033 -187.5390625 16.09375 C-188.08433594 16.59261719 -188.62960938 17.09148437 -189.19140625 17.60546875 C-190.56214039 18.88688187 -191.86904194 20.23586436 -193.1640625 21.59375 C-193.1640625 22.25375 -193.1640625 22.91375 -193.1640625 23.59375 C-193.9890625 24.3775 -194.8140625 25.16125 -195.6640625 25.96875 C-198.62383261 28.47234195 -198.62383261 28.47234195 -198.1640625 32.59375 C-199.81477646 33.61986949 -201.48376256 34.61683143 -203.1640625 35.59375 C-204.19763397 37.23980826 -205.20466582 38.90338442 -206.1640625 40.59375 C-206.8240625 40.59375 -207.4840625 40.59375 -208.1640625 40.59375 C-208.59525391 41.46 -208.59525391 41.46 -209.03515625 42.34375 C-209.74808565 43.76467503 -210.46847738 45.18190251 -211.19921875 46.59375 C-211.70775391 47.58375 -211.70775391 47.58375 -212.2265625 48.59375 C-212.73896484 49.58375 -212.73896484 49.58375 -213.26171875 50.59375 C-214.22279706 52.56106135 -214.22279706 52.56106135 -214.66796875 54.65625 C-215.1640625 56.59375 -215.1640625 56.59375 -217.0390625 59.59375 C-219.49386503 63.71462789 -220.38060103 68.02330923 -221.4453125 72.6640625 C-222.37792869 76.46548719 -223.74298096 79.94836692 -225.1640625 83.59375 C-226.51715352 87.7954537 -227.28281717 91.19982709 -227.1640625 95.59375 C-227.48654507 96.92974921 -227.82178833 98.26268378 -228.1640625 99.59375 C-229.20547448 106.28192915 -229.31416549 112.83267795 -229.2890625 119.59375 C-229.29292969 120.6353125 -229.29679687 121.676875 -229.30078125 122.75 C-229.29103022 130.47281749 -229.09212225 137.37120262 -226.1640625 144.59375 C-226.1243912 146.25994446 -226.12021803 147.92766013 -226.1640625 149.59375 C-225.8340625 150.58375 -225.5040625 151.57375 -225.1640625 152.59375 C-225.6590625 153.58375 -225.6590625 153.58375 -226.1640625 154.59375 C-225.5040625 154.59375 -224.8440625 154.59375 -224.1640625 154.59375 C-224.05449219 155.25761719 -223.94492188 155.92148437 -223.83203125 156.60546875 C-222.93683015 161.59093829 -222.00501972 165.33231416 -219.1640625 169.59375 C-217.9140625 172.78125 -217.9140625 172.78125 -217.1640625 175.59375 C-217.6590625 176.58375 -217.6590625 176.58375 -218.1640625 177.59375 C-217.5040625 177.92375 -216.8440625 178.25375 -216.1640625 178.59375 C-215.19771745 180.36965846 -214.31210671 182.1901798 -213.4765625 184.03125 C-213.01894531 185.01996094 -212.56132812 186.00867188 -212.08984375 187.02734375 C-211.78433594 187.87425781 -211.47882813 188.72117187 -211.1640625 189.59375 C-211.4940625 190.25375 -211.8240625 190.91375 -212.1640625 191.59375 C-232.13841217 158.44482927 -236.78326238 118.98351985 -228.1640625 81.59375 C-218.57378438 43.30850997 -193.77747653 11.75351925 -160.1640625 -8.40625 C-109.98109247 -36.93509473 -46.76035165 -35.10623324 0 0 Z " fill="#01A8F1" transform="translate(341.1640625,383.40625)"/>
<path d="M0 0 C0.99 0.495 0.99 0.495 2 1 C-28.88508577 24.25465282 -68.15359944 32.10713614 -106.22607422 27.33007812 C-123.68726531 24.56767111 -140.89342003 18.10268281 -156 9 C-155.67 8.34 -155.34 7.68 -155 7 C-151.535 8.485 -151.535 8.485 -148 10 C-148 10.66 -148 11.32 -148 12 C-147.41992188 12.10957031 -146.83984375 12.21914063 -146.2421875 12.33203125 C-141.34294426 13.32643211 -137.47033329 14.72100656 -133 17 C-121.77711352 21.32552809 -121.77711352 21.32552809 -110 23 C-107.56975649 23.4393437 -105.17452078 23.95805378 -102.7734375 24.53515625 C-88.75325246 27.61777022 -74.02712894 26.38980715 -60 24 C-59.33339355 23.89284668 -58.66678711 23.78569336 -57.97998047 23.67529297 C-47.85810825 22.04104474 -38.57496026 19.49604207 -29.1875 15.3125 C-26.08263362 14.03402561 -23.29099083 13.54849847 -20 13 C-19.67 12.34 -19.34 11.68 -19 11 C-16.4375 10.375 -16.4375 10.375 -14 10 C-14 9.34 -14 8.68 -14 8 C-8.25 5 -8.25 5 -6 5 C-6 4.34 -6 3.68 -6 3 C-4.03533587 1.93224776 -2.03144641 0.93446535 0 0 Z " fill="#0817A2" transform="translate(338,619)"/>
<path d="M0 0 C0.33 0 0.66 0 1 0 C8.01877163 41.23528332 1.32371796 80.84541061 -22 116 C-24.81024525 119.85739036 -27.81812878 123.44566894 -31 127 C-32.28003906 128.47726562 -32.28003906 128.47726562 -33.5859375 129.984375 C-39.82952463 137.08786412 -46.57410918 143.14222923 -54 149 C-54.66 148.67 -55.32 148.34 -56 148 C-54.71034824 146.62437146 -53.37310707 145.29233607 -52 144 C-51.34 144 -50.68 144 -50 144 C-50 143.34 -50 142.68 -50 142 C-48.33333333 141 -46.66666667 140 -45 139 C-43.22903537 137.37661576 -41.62434783 135.76144112 -40 134 C-38.88818359 132.80890625 -38.88818359 132.80890625 -37.75390625 131.59375 C-32.74775358 126.23413907 -32.74775358 126.23413907 -29 120 C-28.360625 119.38125 -27.72125 118.7625 -27.0625 118.125 C-24.65891151 115.6485755 -23.42053294 113.12517247 -22 110 C-21.34 110 -20.68 110 -20 110 C-20 108.68 -20 107.36 -20 106 C-19.34 106 -18.68 106 -18 106 C-17.34 104.02 -16.68 102.04 -16 100 C-15.34 100 -14.68 100 -14 100 C-13.9175 99.175 -13.835 98.35 -13.75 97.5 C-12.97952898 93.90446858 -11.74838738 91.31034608 -10.0546875 88.08984375 C-7.95211719 83.92363961 -6 79.71621611 -6 75 C-5.34 75 -4.68 75 -4 75 C-3.95101562 74.33613281 -3.90203125 73.67226563 -3.8515625 72.98828125 C-3.77679688 72.10527344 -3.70203125 71.22226562 -3.625 70.3125 C-3.55539062 69.44238281 -3.48578125 68.57226562 -3.4140625 67.67578125 C-2.97803498 64.85805626 -2.07844341 62.63074832 -1 60 C1.26872958 50.79904115 1.20908878 41.35513929 1.25 31.9375 C1.25918457 30.76695068 1.26836914 29.59640137 1.27783203 28.39038086 C1.25325601 21.3680285 0.64665905 14.74352755 -0.66894531 7.84204102 C-1.00701157 4.93980701 -0.73612604 2.81010638 0 0 Z " fill="#0B1191" transform="translate(396,470)"/>
<path d="M0 0 C27.04796108 12.09592215 27.04796108 12.09592215 31 20 C27.15628436 18.62921252 24.16166017 16.84470218 20.875 14.4375 C18.16499947 12.45648138 16.1961513 11.06538377 13 10 C13 9.34 13 8.68 13 8 C12.43152344 7.81824219 11.86304688 7.63648438 11.27734375 7.44921875 C5.51984981 5.57490937 0.02305836 3.33784415 -5.515625 0.88671875 C-6.39734375 0.51160156 -7.2790625 0.13648438 -8.1875 -0.25 C-9.00605469 -0.60578125 -9.82460938 -0.9615625 -10.66796875 -1.328125 C-13.24034644 -2.06924554 -14.51313099 -1.89184268 -17 -1 C-17.495 -1.99 -17.495 -1.99 -18 -3 C-21.75821909 -4.84159556 -25.4414023 -5.52331019 -29.5625 -6.125 C-30.67753906 -6.29257812 -31.79257812 -6.46015625 -32.94140625 -6.6328125 C-36.14848797 -7.07946348 -36.14848797 -7.07946348 -40 -7 C-41.22589844 -7.32871094 -42.45179688 -7.65742188 -43.71484375 -7.99609375 C-48.06431838 -9.13910225 -52.09037022 -9.19605682 -56.5625 -9.0625 C-61.85139691 -8.93396695 -66.77552155 -9.11437882 -72 -10 C-55.02813095 -21.13639701 -16.54231021 -6.83814112 0 0 Z " fill="#028AE9" transform="translate(313,367)"/>
<path d="M0 0 C0.33 0 0.66 0 1 0 C1 5.61 1 11.22 1 17 C1.66 17 2.32 17 3 17 C2.98839844 17.556875 2.97679688 18.11375 2.96484375 18.6875 C2.87937249 25.91592682 3.25575258 32.23085636 6 39 C6.0396713 40.66619446 6.04384447 42.33391013 6 44 C6.33 44.99 6.66 45.98 7 47 C6.67 47.66 6.34 48.32 6 49 C6.66 49 7.32 49 8 49 C8.10957031 49.66386719 8.21914062 50.32773437 8.33203125 51.01171875 C9.22723235 55.99718829 10.15904278 59.73856416 13 64 C14.25 67.1875 14.25 67.1875 15 70 C14.505 70.99 14.505 70.99 14 72 C14.66 72.33 15.32 72.66 16 73 C16.96634505 74.77590846 17.85195579 76.5964298 18.6875 78.4375 C19.14511719 79.42621094 19.60273438 80.41492188 20.07421875 81.43359375 C20.37972656 82.28050781 20.68523437 83.12742187 21 84 C20.67 84.66 20.34 85.32 20 86 C4.18773478 59.75836835 -1.11126485 30.29478935 0 0 Z " fill="#0283E3" transform="translate(109,489)"/>
<path d="M0 0 C0.33 0 0.66 0 1 0 C5.43283331 26.04289572 5.24717286 50.71425173 -3 76 C-4.36306001 71.31640282 -3.88380337 67.15804195 -2.02734375 62.625 C1.72701343 53.03211777 1.20598829 42.06886161 1.25 31.9375 C1.25918457 30.76695068 1.26836914 29.59640137 1.27783203 28.39038086 C1.25325601 21.3680285 0.64665905 14.74352755 -0.66894531 7.84204102 C-1.00701157 4.93980701 -0.73612604 2.81010638 0 0 Z " fill="#081A99" transform="translate(396,470)"/>
<path d="M0 0 C0.66 0.33 1.32 0.66 2 1 C-13.86796778 12.94764633 -37.43467357 26 -58 26 C-57.505 24.515 -57.505 24.515 -57 23 C-55.906875 22.896875 -54.81375 22.79375 -53.6875 22.6875 C-43.71781051 21.42150768 -34.56625267 17.82960137 -25.3984375 13.87890625 C-23 13 -23 13 -20 13 C-19.67 12.34 -19.34 11.68 -19 11 C-16.4375 10.375 -16.4375 10.375 -14 10 C-14 9.34 -14 8.68 -14 8 C-8.25 5 -8.25 5 -6 5 C-6 4.34 -6 3.68 -6 3 C-4.03533587 1.93224776 -2.03144641 0.93446535 0 0 Z " fill="#0B118F" transform="translate(338,619)"/>
<path d="M0 0 C0.33 0 0.66 0 1 0 C2.2769582 5.95913825 1.99113948 8.57401052 -1.01171875 13.78515625 C-2.56115924 17.25761774 -2.63616814 20.72336272 -2.82421875 24.484375 C-2.98582779 26.7971799 -3.39124598 28.7725137 -4 31 C-5.00461576 37.13931852 -5.02015108 43.02519067 -4.83984375 49.2421875 C-5 52 -5 52 -7 54 C-7.48477733 38.7761274 -7.06759306 24.72505836 -3 10 C-2.69191406 8.88109375 -2.38382812 7.7621875 -2.06640625 6.609375 C-1.41829287 4.38904399 -0.74312174 2.18995725 0 0 Z " fill="#019DED" transform="translate(117,452)"/>
<path d="M0 0 C2 2 2 2 2 7 C-13.84 7 -29.68 7 -46 7 C-45.67 6.01 -45.34 5.02 -45 4 C-30.15 4.33 -15.3 4.66 0 5 C0 3.35 0 1.7 0 0 Z " fill="#010205" transform="translate(788,498)"/>
<path d="M0 0 C2.64 0.99 5.28 1.98 8 3 C8 3.66 8 4.32 8 5 C8.58007812 5.10957031 9.16015625 5.21914063 9.7578125 5.33203125 C14.65705574 6.32643211 18.52966671 7.72100656 23 10 C26.01634278 11.0672579 29.0507876 12.05874661 32.09765625 13.03515625 C34.78055225 13.92704765 37.38743569 14.9214184 40 16 C36.72433989 17.08847988 34.80584724 16.90589642 31.54296875 15.84765625 C30.68405029 15.56929932 29.82513184 15.29094238 28.94018555 15.00415039 C28.03179932 14.69340576 27.12341309 14.38266113 26.1875 14.0625 C25.25784424 13.74982178 24.32818848 13.43714355 23.37036133 13.11499023 C15.08906905 10.22732662 7.53471992 6.45601716 0 2 C0 1.34 0 0.68 0 0 Z " fill="#0528A8" transform="translate(182,626)"/>
<path d="M0 0 C12.92363217 3.19340165 27.015221 12.37426036 37 21 C32.95170581 21 31.29817622 19.36233121 28 17.0625 C23.73674767 14.06010911 23.73674767 14.06010911 19 12 C19 11.34 19 10.68 19 10 C18.43152344 9.81824219 17.86304688 9.63648438 17.27734375 9.44921875 C13.55976509 8.23898864 9.89373549 7.0113165 6.3125 5.4375 C3.24524461 4.1064269 0.18514643 3.00992448 -3 2 C-2.01 1.34 -1.02 0.68 0 0 Z " fill="#0472E3" transform="translate(307,365)"/>
<path d="M0 0 C4.38946766 3.63784648 6.29600074 8.24692662 8.625 13.3125 C9.01945312 14.14201172 9.41390625 14.97152344 9.8203125 15.82617188 C11.99993914 20.4910147 13.74623513 25.00516253 15 30 C14.01 30 13.02 30 12 30 C11.88527344 29.30261719 11.77054687 28.60523438 11.65234375 27.88671875 C10.92772859 24.68018818 9.83154173 21.84389049 8.5625 18.8125 C8.13066406 17.76707031 7.69882812 16.72164063 7.25390625 15.64453125 C6.14295591 12.9189708 6.14295591 12.9189708 4 11 C2.33260252 7.39842144 0.78077195 3.90385976 0 0 Z " fill="#0540BF" transform="translate(377,424)"/>
<path d="M0 0 C1.23943359 -0.00386719 1.23943359 -0.00386719 2.50390625 -0.0078125 C3.35855469 -0.00007813 4.21320313 0.00765625 5.09375 0.015625 C6.37572266 0.00402344 6.37572266 0.00402344 7.68359375 -0.0078125 C8.50988281 -0.00523437 9.33617187 -0.00265625 10.1875 0 C10.93708984 0.00225586 11.68667969 0.00451172 12.45898438 0.00683594 C14.86317314 0.29828609 16.50232928 1.07306517 18.59375 2.265625 C9.5201739 3.45560219 0.63764655 3.87342883 -8.40625 2.265625 C-5.4774238 0.59556385 -3.36313029 0.0101212 0 0 Z " fill="#018CD9" transform="translate(249.40625,354.734375)"/>
<path d="M0 0 C0.66 0.33 1.32 0.66 2 1 C1.48050781 1.4846875 0.96101563 1.969375 0.42578125 2.46875 C-7.92874063 10.49897435 -11.69137464 17.90963567 -15 29 C-15.33 29 -15.66 29 -16 29 C-15.62049732 19.13293043 -10.84348628 10.02357803 -4 3 C-1.6875 1.125 -1.6875 1.125 0 0 Z " fill="#00AEF9" transform="translate(255,417)"/>
<path d="M0 0 C1.66020472 0.36415544 3.32839513 0.69238655 5 1 C5.95519531 1.17660156 6.91039062 1.35320313 7.89453125 1.53515625 C8.85746094 1.70917969 9.82039063 1.88320313 10.8125 2.0625 C11.78832031 2.23910156 12.76414063 2.41570313 13.76953125 2.59765625 C14.50558594 2.73042969 15.24164063 2.86320313 16 3 C16 3.66 16 4.32 16 5 C8.1812896 4.53430878 0.63600985 3.77541538 -7 2 C-6 0 -6 0 -4.0625 -0.6875 C-2 -1 -2 -1 0 0 Z " fill="#051E9B" transform="translate(228,642)"/>
<path d="M0 0 C0.66666667 1.33333333 1.33333333 2.66666667 2 4 C2.391875 4.70125 2.78375 5.4025 3.1875 6.125 C3.455625 6.74375 3.72375 7.3625 4 8 C3.67 8.66 3.34 9.32 3 10 C3.66 10.33 4.32 10.66 5 11 C5.96634505 12.77590846 6.85195579 14.5964298 7.6875 16.4375 C8.14511719 17.42621094 8.60273438 18.41492188 9.07421875 19.43359375 C9.37972656 20.28050781 9.68523437 21.12742187 10 22 C9.67 22.66 9.34 23.32 9 24 C7.70238701 21.62808416 6.41183683 19.25275386 5.125 16.875 C4.76019531 16.20984375 4.39539063 15.5446875 4.01953125 14.859375 C1.93951606 11.00189228 0.07873474 7.2777412 -1 3 C-0.67 2.01 -0.34 1.02 0 0 Z " fill="#036DDD" transform="translate(120,551)"/>
<path d="M0 0 C0.33 0 0.66 0 1 0 C2.69882188 8.41826913 3.24911914 16.41922945 3 25 C1.20457472 21.88162978 0.68001269 19.38827228 0.4375 15.8125 C0.16706056 12.1492748 -0.16436533 8.51926166 -0.625 4.875 C-0.74875 3.59625 -0.8725 2.3175 -1 1 C-0.67 0.67 -0.34 0.34 0 0 Z " fill="#0427AA" transform="translate(396,470)"/>
<path d="M0 0 C7.12786995 3.23130104 12.60317911 9.46825859 18 15 C17.67 15.66 17.34 16.32 17 17 C16.38511719 16.36191406 15.77023437 15.72382813 15.13671875 15.06640625 C14.32847656 14.24011719 13.52023437 13.41382813 12.6875 12.5625 C11.48673828 11.32693359 11.48673828 11.32693359 10.26171875 10.06640625 C8.09529192 7.80596523 8.09529192 7.80596523 5 7 C3.61328125 5.37109375 3.61328125 5.37109375 2.3125 3.4375 C1.87550781 2.79683594 1.43851562 2.15617187 0.98828125 1.49609375 C0.49908203 0.75552734 0.49908203 0.75552734 0 0 Z " fill="#055ACE" transform="translate(345,388)"/>
<path d="M0 0 C0.66 0 1.32 0 2 0 C1.55005243 1.79379098 1.08975857 3.58498928 0.625 5.375 C0.36976563 6.37273438 0.11453125 7.37046875 -0.1484375 8.3984375 C-1 11 -1 11 -3 13 C-3.66 10.69 -4.32 8.38 -5 6 C-3.68 5.67 -2.36 5.34 -1 5 C-0.67 3.35 -0.34 1.7 0 0 Z " fill="#0E1115" transform="translate(663,530)"/>
<path d="M0 0 C2.64 0.99 5.28 1.98 8 3 C8 3.66 8 4.32 8 5 C10.97 5.495 10.97 5.495 14 6 C14 6.66 14 7.32 14 8 C14.66 8.33 15.32 8.66 16 9 C11.85701333 8.40165275 8.81805623 6.99335715 5.1875 4.9375 C4.21167969 4.38964844 3.23585937 3.84179688 2.23046875 3.27734375 C1.49441406 2.85582031 0.75835937 2.43429687 0 2 C0 1.34 0 0.68 0 0 Z " fill="#0532B1" transform="translate(182,626)"/>
<path d="M0 0 C0.99 0.66 1.98 1.32 3 2 C1.74057614 3.19959375 0.46704714 4.38439443 -0.8125 5.5625 C-1.87404297 6.55443359 -1.87404297 6.55443359 -2.95703125 7.56640625 C-3.63121094 8.03949219 -4.30539063 8.51257813 -5 9 C-5.99 8.67 -6.98 8.34 -8 8 C-5.36 5.36 -2.72 2.72 0 0 Z " fill="#019FE1" transform="translate(155,394)"/>
<path d="M0 0 C1.99550146 1.99550146 2.81376393 3.47924835 4 6 C4.37125 6.7425 4.7425 7.485 5.125 8.25 C5.41375 8.8275 5.7025 9.405 6 10 C2.19118361 8.55527654 0.70257114 6.67396929 -1 3 C-0.67 2.01 -0.34 1.02 0 0 Z " fill="#0F1015" transform="translate(820,462)"/>
<path d="M0 0 C0.66 0.33 1.32 0.66 2 1 C0.66667905 4.99996286 -1.4957827 5.83782337 -5 8 C-4.45773019 4.20411134 -2.79872437 2.52788007 0 0 Z " fill="#02B4F7" transform="translate(147,403)"/>
<path d="M0 0 C2.18975773 3.28463659 2.99806563 6.20696275 4 10 C3.01 10 2.02 10 1 10 C0.855625 9.21625 0.71125 8.4325 0.5625 7.625 C0.12201075 5.03578982 0.12201075 5.03578982 -1 3 C-0.67 2.01 -0.34 1.02 0 0 Z " fill="#0435B0" transform="translate(388,444)"/>
</svg>
