<?xml version="1.0" encoding="UTF-8"?>
<svg version="1.1" xmlns="http://www.w3.org/2000/svg" width="500" height="500">
<path d="M0 0 C0 0.66 0 1.32 0 2 C0.66 2 1.32 2 2 2 C2 2.66 2 3.32 2 4 C2.66 4 3.32 4 4 4 C4 4.66 4 5.32 4 6 C4.59039062 6.24878906 5.18078125 6.49757812 5.7890625 6.75390625 C15.80259358 12.39757483 21.31013306 27.5544014 24.25390625 37.94921875 C25.24610335 42.0063179 25.83804566 45.8296757 26 50 C26.0515625 51.02351563 26.103125 52.04703125 26.15625 53.1015625 C26.73767571 74.56586178 19.77535689 93.48161109 4.91796875 109.203125 C-7.42320126 120.8549684 -23.30485083 127.92856067 -40.1875 128.75 C-41.01757568 128.79092773 -41.84765137 128.83185547 -42.70288086 128.87402344 C-60.9177388 129.55771937 -77.44867073 123.85999942 -92 113 C-92 112.34 -92 111.68 -92 111 C-92.59039062 110.74347656 -93.18078125 110.48695313 -93.7890625 110.22265625 C-104.8545575 104.10339841 -111.47078189 88.47748821 -115 77 C-119.86206157 58.07226638 -117.88617128 37.94118886 -108.65234375 20.6953125 C-106.51000422 17.20071611 -104.12604634 13.99704254 -101.515625 10.83984375 C-99.83829389 8.86674768 -99.83829389 8.86674768 -98 6 C-97.34 6 -96.68 6 -96 6 C-96 5.34 -96 4.68 -96 4 C-94.3203125 2.4921875 -94.3203125 2.4921875 -92.125 0.875 C-91.40570313 0.33617187 -90.68640625 -0.20265625 -89.9453125 -0.7578125 C-88 -2 -88 -2 -86 -2 C-86 -2.66 -86 -3.32 -86 -4 C-57.02717553 -18.63024895 -27.07348685 -19.83763 0 0 Z " fill="#0352BE" transform="translate(170,188)"/>
<path d="M0 0 C0.73347656 -0.01611328 1.46695312 -0.03222656 2.22265625 -0.04882812 C8.71385439 -0.05463421 13.42774291 1.82929044 18.125 6.4375 C25.43319051 14.19941409 25.5 20.2288688 25.5 31.3125 C12.96 31.3125 0.42 31.3125 -12.5 31.3125 C-10.33384558 39.62176193 -10.33384558 39.62176193 -7.375 42.875 C-3.37647606 44.87426197 0.10841781 45.02798249 4.5 44.3125 C6.90083438 42.95364884 6.90083438 42.95364884 8.5 41.3125 C9.16 41.3125 9.82 41.3125 10.5 41.3125 C10.5 40.6525 10.5 39.9925 10.5 39.3125 C15.45 39.3125 20.4 39.3125 25.5 39.3125 C25.5 40.9625 25.5 42.6125 25.5 44.3125 C24.84 44.3125 24.18 44.3125 23.5 44.3125 C23.5 44.9725 23.5 45.6325 23.5 46.3125 C22.84 46.3125 22.18 46.3125 21.5 46.3125 C20.84 47.6325 20.18 48.9525 19.5 50.3125 C18.84 50.3125 18.18 50.3125 17.5 50.3125 C17.5 50.9725 17.5 51.6325 17.5 52.3125 C9.32659294 56.71356534 0.60352419 57.80934254 -8.5 56.3125 C-14.09045531 54.51863962 -19.62429771 52.16887 -23.125 47.25 C-23.57875 46.280625 -24.0325 45.31125 -24.5 44.3125 C-25.02787109 43.30509766 -25.02787109 43.30509766 -25.56640625 42.27734375 C-26.9614941 37.84691832 -26.828531 33.55442823 -26.8125 28.9375 C-26.82861328 28.01710937 -26.84472656 27.09671875 -26.86132812 26.1484375 C-26.86754854 17.43985312 -24.62796665 11.58992925 -18.5 5.3125 C-16.1875 4.4375 -16.1875 4.4375 -14.5 4.3125 C-14.5 3.6525 -14.5 2.9925 -14.5 2.3125 C-9.52808243 0.3378935 -5.26286576 -0.02312331 0 0 Z M-9.5 14.3125 C-11.23523928 16.95667414 -11.5 18.09715943 -11.5 21.3125 C-4.24 21.3125 3.02 21.3125 10.5 21.3125 C9.49282785 16.27663924 9.15953092 15.41755654 5.5 12.3125 C0.41975109 9.77237555 -5.25843071 10.81944294 -9.5 14.3125 Z " fill="#E9EAEB" transform="translate(374.5,224.6875)"/>
<path d="M0 0 C4.37266911 2.22452381 6.87101417 5.88490437 8.6015625 10.34765625 C9.1158977 13.79704464 9.06977182 17.17515496 8.9921875 20.65625 C8.98652771 21.62297134 8.98086792 22.58969269 8.97503662 23.58570862 C8.95276781 26.65270944 8.90258899 29.71851261 8.8515625 32.78515625 C8.83148523 34.87302992 8.81323662 36.96092203 8.796875 39.04882812 C8.75293409 44.14889417 8.68397233 49.24807263 8.6015625 54.34765625 C3.9815625 54.34765625 -0.6384375 54.34765625 -5.3984375 54.34765625 C-5.4281665 52.81226196 -5.4281665 52.81226196 -5.45849609 51.24584961 C-5.53496472 47.4231845 -5.62361617 43.6008797 -5.71582031 39.77856445 C-5.75394049 38.1288976 -5.788822 36.47915243 -5.8203125 34.8293457 C-5.8663341 32.44844704 -5.92426385 30.06807973 -5.984375 27.6875 C-5.99592621 26.95804672 -6.00747742 26.22859344 -6.01937866 25.47703552 C-6.15265355 20.78049755 -6.93684245 16.81706005 -8.3984375 12.34765625 C-15.94752093 11.81979762 -15.94752093 11.81979762 -22.3984375 15.34765625 C-24.58948981 19.55469006 -24.7377205 23.62592756 -24.8125 28.2734375 C-24.83186615 29.02102829 -24.8512323 29.76861908 -24.8711853 30.53886414 C-24.93067668 32.91251431 -24.97724342 35.28621379 -25.0234375 37.66015625 C-25.06164539 39.27541107 -25.10069875 40.89064612 -25.140625 42.50585938 C-25.23793555 46.45301863 -25.31774272 50.3999828 -25.3984375 54.34765625 C-30.3484375 54.34765625 -35.2984375 54.34765625 -40.3984375 54.34765625 C-40.3984375 36.52765625 -40.3984375 18.70765625 -40.3984375 0.34765625 C-35.4484375 0.34765625 -30.4984375 0.34765625 -25.3984375 0.34765625 C-25.0684375 1.66765625 -24.7384375 2.98765625 -24.3984375 4.34765625 C-23.4084375 4.01765625 -22.4184375 3.68765625 -21.3984375 3.34765625 C-21.3984375 2.68765625 -21.3984375 2.02765625 -21.3984375 1.34765625 C-15.65936588 -2.28466756 -6.41340392 -1.7443623 0 0 Z " fill="#EBECEC" transform="translate(284.3984375,225.65234375)"/>
<path d="M0 0 C2.77186988 -0.10787818 5.53955537 -0.18723327 8.3125 -0.25 C9.09818359 -0.28351563 9.88386719 -0.31703125 10.69335938 -0.3515625 C16.49673173 -0.45034331 16.49673173 -0.45034331 19.04296875 1.828125 C20 4 20 4 20 7 C20.66 7 21.32 7 22 7 C23.32 9.31 24.64 11.62 26 14 C28.40072955 11.11912454 30.47291037 8.43595166 32 5 C32.66 5 33.32 5 34 5 C34.144375 4.360625 34.28875 3.72125 34.4375 3.0625 C35 1 35 1 36 0 C38.86267567 -0.07325168 41.700719 -0.09238205 44.5625 -0.0625 C45.36880859 -0.05798828 46.17511719 -0.05347656 47.00585938 -0.04882812 C49.00393756 -0.03700518 51.00197783 -0.01906914 53 0 C51.17368573 3.8633571 48.84713404 7.2631843 46.4375 10.78125 C45.12668884 12.80445853 44.02918719 14.82287326 43 17 C42.34 17 41.68 17 41 17 C40.731875 17.721875 40.46375 18.44375 40.1875 19.1875 C39.009374 21.97779843 37.5811596 24.42249326 36 27 C37.35381349 28.95857825 38.70806907 30.9168488 40.0625 32.875 C40.67170288 33.7565979 40.67170288 33.7565979 41.29321289 34.65600586 C44.35871149 39.08755264 47.46061029 43.49206123 50.58984375 47.87890625 C51.90959303 49.8640139 52.98823052 51.8444911 54 54 C49.52389019 56.2380549 43.69745309 55.66849959 38.86181641 54.72119141 C32.76752895 52.3605141 29.72801273 44.45602546 27 39 C26.45730469 39.74765625 25.91460937 40.4953125 25.35546875 41.265625 C24.64003906 42.25046875 23.92460937 43.2353125 23.1875 44.25 C22.12595703 45.71179688 22.12595703 45.71179688 21.04296875 47.203125 C20.36878906 48.12609375 19.69460938 49.0490625 19 50 C18.5978125 50.763125 18.195625 51.52625 17.78125 52.3125 C14.81400163 55.1235774 11.24974529 54.67894225 7.3125 54.75 C6.51521484 54.77964844 5.71792969 54.80929687 4.89648438 54.83984375 C2.93153251 54.91044082 0.96576023 54.95749708 -1 55 C-0.34 53.35 0.32 51.7 1 50 C1.66 50 2.32 50 3 50 C3.37318359 48.68708984 3.37318359 48.68708984 3.75390625 47.34765625 C5.06412959 43.82771455 6.66472749 41.41284278 8.9375 38.4375 C10.30520648 36.6351952 11.65996763 34.82297473 13 33 C13.62003906 32.16597656 14.24007813 31.33195312 14.87890625 30.47265625 C16.24944495 28.09190309 16.24944495 28.09190309 15.5390625 25.73046875 C13.32598844 21.80422822 10.87870249 18.05852187 8.375 14.3125 C7.35781422 12.79053578 6.34457986 11.2659208 5.3359375 9.73828125 C4.88782715 9.06837158 4.4397168 8.39846191 3.97802734 7.70825195 C3 6 3 6 3 4 C2.34 4 1.68 4 1 4 C0.67 2.68 0.34 1.36 0 0 Z " fill="#E5E6E7" transform="translate(400,226)"/>
<path d="M0 0 C2.62527189 -0.05382106 5.24944713 -0.09358313 7.875 -0.125 C8.62136719 -0.14175781 9.36773437 -0.15851563 10.13671875 -0.17578125 C12.09194461 -0.1933959 14.04742021 -0.10320189 16 0 C18.77456859 2.77456859 19.29925934 6.001923 20.3125 9.6875 C22.63621317 17.88072099 25.24370857 25.9422459 28 34 C32.82125076 24.93251004 35.50466507 14.63048669 38.203125 4.765625 C39 2 39 2 40 0 C45.28 0 50.56 0 56 0 C53.74718101 7.88486647 53.74718101 7.88486647 52.703125 10.83984375 C52.46956299 11.50250244 52.23600098 12.16516113 51.99536133 12.84790039 C51.74939209 13.53746826 51.50342285 14.22703613 51.25 14.9375 C50.99049561 15.6689624 50.73099121 16.4004248 50.46362305 17.15405273 C47.73610221 24.80473637 44.87566085 32.40406671 42 40 C41.47646406 41.40491124 40.95302714 42.80985938 40.4296875 44.21484375 C39.06253498 47.86368392 37.56173448 51.43032119 36 55 C31.05 55 26.1 55 21 55 C17.29605025 48.16193892 14.65950973 40.99032051 11.99365234 33.70263672 C10.81504759 30.49694762 9.6207027 27.2972986 8.42578125 24.09765625 C7.51290521 21.64848059 6.60014523 19.19926168 5.6875 16.75 C5.02016846 14.96372192 5.02016846 14.96372192 4.33935547 13.14135742 C3.71311279 11.45490112 3.71311279 11.45490112 3.07421875 9.734375 C2.69869873 8.72600586 2.32317871 7.71763672 1.9362793 6.67871094 C1.16037622 4.45883908 0.51692829 2.29124972 0 0 Z " fill="#E8E9EA" transform="translate(294,226)"/>
<path d="M0 0 C4.95 0 9.9 0 15 0 C15 24.09 15 48.18 15 73 C10.05 73 5.1 73 0 73 C0 48.91 0 24.82 0 0 Z " fill="#EEEFEF" transform="translate(221,207)"/>
<path d="M0 0 C0.10111273 12.39797595 0.12742481 24.795401 -0.3125 37.1875 C-0.33497803 38.08807129 -0.35745605 38.98864258 -0.38061523 39.91650391 C-0.59629845 45.05279677 -1.42123281 48.44394752 -4 53 C-4 53.99 -4 54.98 -4 56 C-4.66 56 -5.32 56 -6 56 C-6 56.99 -6 57.98 -6 59 C-12.625 61 -12.625 61 -16 61 C-19.10921373 50.36596647 -18.12215866 37.83545908 -18.1875 26.875 C-18.20047119 25.70122803 -18.21344238 24.52745605 -18.22680664 23.31811523 C-18.22861938 21.64084351 -18.22861938 21.64084351 -18.23046875 19.9296875 C-18.23457764 18.93179199 -18.23868652 17.93389648 -18.24291992 16.90576172 C-17.97377972 13.68635807 -17.13054656 11.01609772 -16 8 C-15.34 8 -14.68 8 -14 8 C-13.79375 7.4225 -13.5875 6.845 -13.375 6.25 C-10.09323926 0.87984606 -5.95083615 -0.23271426 0 0 Z " fill="#0181E2" transform="translate(134,231)"/>
<path d="M0 0 C6.76871614 5.9395002 9.04867275 17.74424566 9.8359375 26.375 C11.2647707 49.23633117 6.07853865 68.42273208 -9 86 C-21.30279294 99.01834 -38.39627266 106.88435304 -56.1875 107.75 C-57.01757568 107.79092773 -57.84765137 107.83185547 -58.70288086 107.87402344 C-76.9177388 108.55771937 -93.44867073 102.85999942 -108 92 C-108 91.34 -108 90.68 -108 90 C-109.32 89.34 -110.64 88.68 -112 88 C-108.98968256 87.06576355 -108.13349732 86.95550089 -105 88 C-102.8125 89.9375 -102.8125 89.9375 -101 92 C-101 92.66 -101 93.32 -101 94 C-97.7 94.33 -94.4 94.66 -91 95 C-90.67 96.65 -90.34 98.3 -90 100 C-88.02 99.505 -88.02 99.505 -86 99 C-86 99.99 -86 100.98 -86 102 C-84.515 101.505 -84.515 101.505 -83 101 C-83 101.66 -83 102.32 -83 103 C-82.10796875 102.98839844 -81.2159375 102.97679687 -80.296875 102.96484375 C-79.12640625 102.95582031 -77.9559375 102.94679688 -76.75 102.9375 C-75.58984375 102.92589844 -74.4296875 102.91429687 -73.234375 102.90234375 C-70.59022872 102.98217908 -68.50173909 103.21356222 -66 104 C-66 104.66 -66 105.32 -66 106 C-51.10101355 105.54086328 -33.10228875 103.10228875 -22 92 C-19.375 91.375 -19.375 91.375 -17 91 C-17 90.34 -17 89.68 -17 89 C-16.34 88.34 -15.68 87.68 -15 87 C-15.3185177 84.89179203 -15.3185177 84.89179203 -16 83 C-14.02 82.67 -12.04 82.34 -10 82 C-9.505 80.515 -9.505 80.515 -9 79 C-8 78 -7 77 -6 76 C-6 75.34 -6 74.68 -6 74 C-5.01 74 -4.02 74 -3 74 C-3 73.34 -3 72.68 -3 72 C-2.34 72 -1.68 72 -1 72 C-1.04125 71.0925 -1.0825 70.185 -1.125 69.25 C-1.00203781 66.052983 -0.57535281 64.68736656 1 62 C1.33 61.01 1.66 60.02 2 59 C2.66 58.67 3.32 58.34 4 58 C6.2045427 51.39413438 6.30204609 45.10529298 6.25 38.1875 C6.25773437 37.17107422 6.26546875 36.15464844 6.2734375 35.10742188 C6.25584745 28.20772636 5.46108846 21.74047698 4 15 C2.68 14.67 1.36 14.34 0 14 C0.99 13.67 1.98 13.34 3 13 C2.68289062 12.43796875 2.36578125 11.8759375 2.0390625 11.296875 C0.93125475 8.84803683 0.61024601 6.91612145 0.375 4.25 C0.26285156 3.05117187 0.26285156 3.05117187 0.1484375 1.828125 C0.09945312 1.22484375 0.05046875 0.6215625 0 0 Z " fill="#09116A" transform="translate(186,209)"/>
<path d="M0 0 C-0.33 0.66 -0.66 1.32 -1 2 C-2.32064453 1.96519531 -2.32064453 1.96519531 -3.66796875 1.9296875 C-4.82941406 1.91164062 -5.99085937 1.89359375 -7.1875 1.875 C-8.33605469 1.85179687 -9.48460938 1.82859375 -10.66796875 1.8046875 C-13.94216106 1.99660968 -16.03334262 2.69529204 -19 4 C-19.86625 3.95875 -20.7325 3.9175 -21.625 3.875 C-22.40875 3.91625 -23.1925 3.9575 -24 4 C-25.04115841 5.30144802 -26.03886134 6.63838689 -27 8 C-30.50812816 9.84638324 -33.10779808 10 -37 10 C-37.99 10.66 -38.98 11.32 -40 12 C-40.66 12 -41.32 12 -42 12 C-42.33 12.99 -42.66 13.98 -43 15 C-44.7421875 15.95703125 -44.7421875 15.95703125 -46.875 16.8125 C-51.05494758 18.73482883 -52.19899183 20.73445434 -54 25 C-54.99 25.33 -55.98 25.66 -57 26 C-58.20882096 28.00016466 -58.20882096 28.00016466 -59 30 C-59.99 29.67 -60.98 29.34 -62 29 C-61.67 30.32 -61.34 31.64 -61 33 C-61.763125 33.37125 -62.52625 33.7425 -63.3125 34.125 C-66.56246632 36.39241836 -67.55501768 38.34951834 -69 42 C-69 42.99 -69 43.98 -69 45 C-69.66 45 -70.32 45 -71 45 C-71 46.65 -71 48.3 -71 50 C-71.66 50 -72.32 50 -73 50 C-73.06058594 50.56847656 -73.12117188 51.13695312 -73.18359375 51.72265625 C-73.57009627 55.28442565 -73.9748821 58.83045415 -74.5 62.375 C-75.17047168 67.23591972 -75.58452816 72.11157596 -76 77 C-76.33 77 -76.66 77 -77 77 C-77.83578545 53.12546718 -77.83578545 53.12546718 -73 42 C-72.62617187 41.113125 -72.25234375 40.22625 -71.8671875 39.3125 C-69.40487272 33.9638957 -66.27429368 29.45928119 -62.55078125 24.91015625 C-60.84870563 22.87466518 -60.84870563 22.87466518 -59 20 C-58.34 20 -57.68 20 -57 20 C-57 19.34 -57 18.68 -57 18 C-55.3203125 16.4921875 -55.3203125 16.4921875 -53.125 14.875 C-52.40570313 14.33617187 -51.68640625 13.79734375 -50.9453125 13.2421875 C-49 12 -49 12 -47 12 C-47 11.34 -47 10.68 -47 10 C-44.62690978 8.87081967 -42.25168006 7.74657935 -39.875 6.625 C-39.20984375 6.30789062 -38.5446875 5.99078125 -37.859375 5.6640625 C-25.35562551 -0.22005491 -13.55038051 -0.15130698 0 0 Z " fill="#0B94D9" transform="translate(131,174)"/>
<path d="M0 0 C0.66111875 7.14008254 -1.07229559 12.0105085 -5 18 C-8.31083781 21.80790729 -12.08510213 23.87366924 -17 25 C-18.9998183 25.02695833 -21.00023337 25.03055199 -23 25 C-22.56837062 11.85688541 -22.56837062 11.85688541 -18 6 C-12.30625352 0.75889445 -7.79762533 -2.00510366 0 0 Z " fill="#0399F1" transform="translate(138,200)"/>
<path d="M0 0 C2.6875 -0.3125 2.6875 -0.3125 6 0 C8.875 2.375 8.875 2.375 11 5 C11 5.66 11 6.32 11 7 C14.3 7.33 17.6 7.66 21 8 C21.33 9.65 21.66 11.3 22 13 C23.32 12.67 24.64 12.34 26 12 C26 12.99 26 13.98 26 15 C26.99 14.67 27.98 14.34 29 14 C29 14.66 29 15.32 29 16 C29.89203125 15.98839844 30.7840625 15.97679687 31.703125 15.96484375 C32.87359375 15.95582031 34.0440625 15.94679688 35.25 15.9375 C36.41015625 15.92589844 37.5703125 15.91429687 38.765625 15.90234375 C41.40977128 15.98217908 43.49826091 16.21356222 46 17 C46 17.66 46 18.32 46 19 C29.64085609 19.69231487 17.08740038 14.76743484 4 5 C4 4.34 4 3.68 4 3 C2.68 2.34 1.36 1.68 0 1 C0 0.67 0 0.34 0 0 Z " fill="#092972" transform="translate(74,296)"/>
<path d="M0 0 C-0.33 0.66 -0.66 1.32 -1 2 C-2.32064453 1.96519531 -2.32064453 1.96519531 -3.66796875 1.9296875 C-4.82941406 1.91164062 -5.99085937 1.89359375 -7.1875 1.875 C-8.33605469 1.85179687 -9.48460937 1.82859375 -10.66796875 1.8046875 C-13.94216106 1.99660968 -16.03334262 2.69529204 -19 4 C-19.86625 3.95875 -20.7325 3.9175 -21.625 3.875 C-22.40875 3.91625 -23.1925 3.9575 -24 4 C-25.04115841 5.30144802 -26.03886134 6.63838689 -27 8 C-30.50812816 9.84638324 -33.10779808 10 -37 10 C-37.99 10.66 -38.98 11.32 -40 12 C-40.66 12 -41.32 12 -42 12 C-42.33 12.99 -42.66 13.98 -43 15 C-46.5625 16.6875 -46.5625 16.6875 -50 18 C-50 17.01 -50 16.02 -50 15 C-49.01 15 -48.02 15 -47 15 C-46.91105469 14.36964844 -46.82210937 13.73929688 -46.73046875 13.08984375 C-46.48941406 12.40019531 -46.24835938 11.71054688 -46 11 C-44.05609093 10.24220494 -42.10566227 9.49539757 -40.12109375 8.8515625 C-37.93316358 7.97316696 -36.6103028 7.01170042 -34.875 5.4375 C-25.83794957 -2.22434711 -11.18560525 -0.1249013 0 0 Z " fill="#049FF0" transform="translate(131,174)"/>
<path d="M0 0 C2.7083445 2.36012878 3.85019927 4.59993115 5.125 7.9375 C5.45757812 8.79214844 5.79015625 9.64679688 6.1328125 10.52734375 C7.62578334 14.78432817 8.12078996 18.32516853 8.09765625 22.859375 C8.09443359 23.97441406 8.09121094 25.08945313 8.08789062 26.23828125 C8.07951172 27.39714844 8.07113281 28.55601562 8.0625 29.75 C8.05798828 30.92433594 8.05347656 32.09867188 8.04882812 33.30859375 C8.03705094 36.20578072 8.02060326 39.10286454 8 42 C7.67 42 7.34 42 7 42 C6.91697632 40.9330188 6.91697632 40.9330188 6.83227539 39.84448242 C6.57957911 36.62516867 6.32110798 33.40634403 6.0625 30.1875 C5.97548828 29.06794922 5.88847656 27.94839844 5.79882812 26.79492188 C5.71181641 25.72177734 5.62480469 24.64863281 5.53515625 23.54296875 C5.456604 22.55321045 5.37805176 21.56345215 5.29711914 20.54370117 C5.07382992 17.88144162 5.07382992 17.88144162 4 15 C1.98491642 14.26676204 1.98491642 14.26676204 0 14 C0.99 13.67 1.98 13.34 3 13 C2.68289062 12.43796875 2.36578125 11.8759375 2.0390625 11.296875 C0.93125475 8.84803683 0.61024601 6.91612145 0.375 4.25 C0.30023438 3.45078125 0.22546875 2.6515625 0.1484375 1.828125 C0.09945312 1.22484375 0.05046875 0.6215625 0 0 Z " fill="#082987" transform="translate(186,209)"/>
<path d="M0 0 C0.33 0 0.66 0 1 0 C1 5.61 1 11.22 1 17 C1.66 17.33 2.32 17.66 3 18 C3.56640625 20.203125 3.56640625 20.203125 4 23 C4.31161274 24.91681112 4.62412253 26.83347661 4.9375 28.75 C5.09089844 29.71421875 5.24429688 30.6784375 5.40234375 31.671875 C5.69818359 32.82429688 5.69818359 32.82429688 6 34 C6.66 34.33 7.32 34.66 8 35 C7.67 35.66 7.34 36.32 7 37 C6.01 37 5.02 37 4 37 C0.05481297 24.54800343 -0.49338142 13.01008847 0 0 Z " fill="#1060A4" transform="translate(53,234)"/>
<path d="M0 0 C0.33 0 0.66 0 1 0 C2.85990345 13.48429998 1.88053122 25.79756523 -1 39 C-3.48130014 35.27804979 -2.99002306 34.46934886 -2.1875 30.1875 C-0.5571218 20.18434085 -0.33801503 10.1157181 0 0 Z " fill="#07145D" transform="translate(194,229)"/>
<path d="M0 0 C-0.33 0.66 -0.66 1.32 -1 2 C-1.88042969 1.97679687 -2.76085937 1.95359375 -3.66796875 1.9296875 C-4.82941406 1.91164062 -5.99085937 1.89359375 -7.1875 1.875 C-8.33605469 1.85179687 -9.48460938 1.82859375 -10.66796875 1.8046875 C-13.94114601 1.99655018 -16.03914207 2.68060015 -19 4 C-20.66666667 4 -22.33333333 4 -24 4 C-25.010625 4.350625 -26.02125 4.70125 -27.0625 5.0625 C-30.0213497 6.00681373 -31.16693174 6.08964164 -34 5 C-26.36695306 -2.63304694 -10.01234649 -0.1118004 0 0 Z " fill="#108ED3" transform="translate(131,174)"/>
<path d="M0 0 C0 5.28 0 10.56 0 16 C-0.33 16 -0.66 16 -1 16 C-1.33 11.38 -1.66 6.76 -2 2 C-3.11375 2.61875 -4.2275 3.2375 -5.375 3.875 C-6.00148438 4.22304687 -6.62796875 4.57109375 -7.2734375 4.9296875 C-9.1612614 6.00897274 -9.1612614 6.00897274 -11 8 C-12.31747324 8.69748583 -13.64914193 9.36959957 -15 10 C-13.83946267 5.48679927 -11.6275459 3.58704683 -8.046875 0.91796875 C-6 0 -6 0 0 0 Z " fill="#098BEB" transform="translate(134,231)"/>
<path d="M0 0 C0.33 0.66 0.66 1.32 1 2 C1.90685547 2.42152344 1.90685547 2.42152344 2.83203125 2.8515625 C5.52943968 4.28045994 6.83753094 5.95920526 8.6875 8.375 C9.59048828 9.53128906 9.59048828 9.53128906 10.51171875 10.7109375 C11.9235887 12.88247501 12.56691841 14.47080352 13 17 C10.525 16.01 10.525 16.01 8 15 C7.67 15.66 7.34 16.32 7 17 C6.87625 15.865625 6.7525 14.73125 6.625 13.5625 C6.41875 12.386875 6.2125 11.21125 6 10 C5.34 9.67 4.68 9.34 4 9 C4 8.01 4 7.02 4 6 C2.68 5.67 1.36 5.34 0 5 C0 3.35 0 1.7 0 0 Z " fill="#0A3891" transform="translate(173,192)"/>
<path d="M0 0 C0.33 0 0.66 0 1 0 C1.04898438 1.10859375 1.09796875 2.2171875 1.1484375 3.359375 C1.22349215 4.82294065 1.29903881 6.28648112 1.375 7.75 C1.4059375 8.47960937 1.436875 9.20921875 1.46875 9.9609375 C1.6748494 13.73942656 1.91512843 16.77946668 4 20 C4.5775 19.649375 5.155 19.29875 5.75 18.9375 C8.39786506 17.83422289 9.33185326 18.19843491 12 19 C10.75539217 19.67667998 9.50403104 20.34094719 8.25 21 C7.20585938 21.556875 7.20585938 21.556875 6.140625 22.125 C4 23 4 23 0 23 C0 15.41 0 7.82 0 0 Z " fill="#0B6DD5" transform="translate(116,272)"/>
<path d="M0 0 C1.02829198 3.27672147 0.98111968 5.91011335 0.625 9.3125 C0.52445313 10.28832031 0.42390625 11.26414063 0.3203125 12.26953125 C-0.06124473 15.52207396 -0.53687659 18.7581361 -1 22 C-1.36391835 25.66410943 -1.68817835 29.33111968 -2 33 C-2.33 33 -2.66 33 -3 33 C-3.61916858 9.00483611 -3.61916858 9.00483611 0 0 Z " fill="#107CC0" transform="translate(57,218)"/>
<path d="M0 0 C0.33 0 0.66 0 1 0 C1.08765069 4.02069425 1.14061018 8.0411401 1.1875 12.0625 C1.22520508 13.7630957 1.22520508 13.7630957 1.26367188 15.49804688 C1.3188059 21.80170344 1.07297201 26.44284064 -2 32 C-2.66 32 -3.32 32 -4 32 C-4.33 32.66 -4.66 33.32 -5 34 C-4.61067673 30.72968451 -4.20826232 28.34710387 -2.5 25.5 C-0.38606472 20.56748435 -0.43251057 15.93975366 -0.3125 10.625 C-0.27833984 9.60277344 -0.24417969 8.58054687 -0.20898438 7.52734375 C-0.12691412 5.01833886 -0.05763124 2.50966535 0 0 Z " fill="#0C66CF" transform="translate(133,256)"/>
<path d="M0 0 C0.33 0.66 0.66 1.32 1 2 C1.89203125 1.98839844 2.7840625 1.97679687 3.703125 1.96484375 C4.87359375 1.95582031 6.0440625 1.94679688 7.25 1.9375 C8.41015625 1.92589844 9.5703125 1.91429687 10.765625 1.90234375 C13.40977128 1.98217908 15.49826091 2.21356222 18 3 C18 3.66 18 4.32 18 5 C9.74447081 5.34937193 2.7629761 4.94397288 -5 2 C-5 1.67 -5 1.34 -5 1 C-3.35 0.67 -1.7 0.34 0 0 Z " fill="#091A6F" transform="translate(102,310)"/>
<path d="M0 0 C-1 3 -1 3 -4.375 4.6875 C-8 6 -8 6 -11 6 C-11.1546875 6.9590625 -11.1546875 6.9590625 -11.3125 7.9375 C-11.539375 8.618125 -11.76625 9.29875 -12 10 C-12.99 10.33 -13.98 10.66 -15 11 C-15.33 11.66 -15.66 12.32 -16 13 C-17.32 12.67 -18.64 12.34 -20 12 C-14.25 7 -14.25 7 -12 7 C-12 6.34 -12 5.68 -12 5 C-10.37750059 4.16180842 -8.75191503 3.3295884 -7.125 2.5 C-6.22007813 2.0359375 -5.31515625 1.571875 -4.3828125 1.09375 C-2 0 -2 0 0 0 Z " fill="#1079A9" transform="translate(96,179)"/>
<path d="M0 0 C1.32 0.33 2.64 0.66 4 1 C2.6875 3.9375 2.6875 3.9375 1 7 C0.01 7.33 -0.98 7.66 -2 8 C-3.20882096 10.00016466 -3.20882096 10.00016466 -4 12 C-4.33 12 -4.66 12 -5 12 C-5 10.35 -5 8.7 -5 7 C-4.34 7 -3.68 7 -3 7 C-3 6.34 -3 5.68 -3 5 C-2.34 5 -1.68 5 -1 5 C-0.67 3.35 -0.34 1.7 0 0 Z " fill="#02A4F3" transform="translate(76,192)"/>
<path d="M0 0 C0 1.32 0 2.64 0 4 C1.32 3.67 2.64 3.34 4 3 C4 3.99 4 4.98 4 6 C-1.37305699 5.7357513 -1.37305699 5.7357513 -4 5 C-6 2.4375 -6 2.4375 -7 0 C-2.25 -1.125 -2.25 -1.125 0 0 Z " fill="#092A91" transform="translate(96,305)"/>
<path d="M0 0 C-1 3 -1 3 -2.9375 4.0625 C-3.618125 4.371875 -4.29875 4.68125 -5 5 C-5.66 5.66 -6.32 6.32 -7 7 C-8.31747324 7.69748583 -9.64914193 8.36959957 -11 9 C-9.99056513 5.36603447 -9.08394242 4.06608233 -6.0625 1.6875 C-3 0 -3 0 0 0 Z " fill="#0C97F2" transform="translate(130,232)"/>
<path d="M0 0 C4.51478398 0.53115106 7.34666857 2.36620292 11 5 C10.67 5.66 10.34 6.32 10 7 C9.34 7 8.68 7 8 7 C8 6.34 8 5.68 8 5 C5.69 4.67 3.38 4.34 1 4 C0.67 2.68 0.34 1.36 0 0 Z " fill="#0E4C9A" transform="translate(159,183)"/>
<path d="M0 0 C0.33 0.66 0.66 1.32 1 2 C1.61875 2.309375 2.2375 2.61875 2.875 2.9375 C5.05810535 4.02905268 6.37010468 5.20711515 8 7 C7.67 7.66 7.34 8.32 7 9 C6.01 9 5.02 9 4 9 C4 8.01 4 7.02 4 6 C2.68 5.67 1.36 5.34 0 5 C0 3.35 0 1.7 0 0 Z " fill="#0B377C" transform="translate(173,192)"/>
<path d="M0 0 C0.66 0.33 1.32 0.66 2 1 C1.84660156 1.66386719 1.69320312 2.32773438 1.53515625 3.01171875 C0.89226979 6.60155922 0.64966009 10.17795419 0.4375 13.8125 C0.39431641 14.50537109 0.35113281 15.19824219 0.30664062 15.91210938 C0.20138547 17.60788686 0.10027137 19.30392052 0 21 C-0.33 21 -0.66 21 -1 21 C-1.02895976 17.87501937 -1.04678483 14.7500731 -1.0625 11.625 C-1.07087891 10.73554688 -1.07925781 9.84609375 -1.08789062 8.9296875 C-1.09111328 8.07890625 -1.09433594 7.228125 -1.09765625 6.3515625 C-1.10289307 5.56604004 -1.10812988 4.78051758 -1.11352539 3.97119141 C-1 2 -1 2 0 0 Z " fill="#0E8EEC" transform="translate(117,243)"/>
<path d="M0 0 C5.28 0 10.56 0 16 0 C16.66 1.32 17.32 2.64 18 4 C17.46890625 3.68289062 16.9378125 3.36578125 16.390625 3.0390625 C13.45464152 1.7629651 10.93825671 1.58292979 7.75 1.375 C6.67234375 1.30023438 5.5946875 1.22546875 4.484375 1.1484375 C3.66453125 1.09945312 2.8446875 1.05046875 2 1 C1.67 1.99 1.34 2.98 1 4 C0.67 2.68 0.34 1.36 0 0 Z " fill="#72757A" transform="translate(294,226)"/>
<path d="M0 0 C2.75 -0.3125 2.75 -0.3125 6 0 C8.375 2.5 8.375 2.5 10 5 C8.02 5 6.04 5 4 5 C4 4.34 4 3.68 4 3 C2.68 2.34 1.36 1.68 0 1 C0 0.67 0 0.34 0 0 Z " fill="#08338A" transform="translate(74,296)"/>
<path d="M0 0 C1.4540625 0.0309375 1.4540625 0.0309375 2.9375 0.0625 C0.58281545 2.78897685 -1.6033417 4.05006342 -5.0625 5.0625 C-7.375 4.6875 -7.375 4.6875 -9.0625 4.0625 C-8.258125 3.588125 -7.45375 3.11375 -6.625 2.625 C-2.40033784 0.04898649 -2.40033784 0.04898649 0 0 Z " fill="#0C5DCA" transform="translate(125.0625,289.9375)"/>
<path d="M0 0 C0 0.66 0 1.32 0 2 C-1.45792884 2.05399736 -2.91642712 2.09279177 -4.375 2.125 C-5.18710938 2.14820313 -5.99921875 2.17140625 -6.8359375 2.1953125 C-9 2 -9 2 -11 0 C-7.18243176 -1.37432457 -3.92744671 -0.67975039 0 0 Z " fill="#091E89" transform="translate(120,313)"/>
<path d="M0 0 C5.28 0 10.56 0 16 0 C15.67 1.98 15.34 3.96 15 6 C14.80664062 5.35546875 14.61328125 4.7109375 14.4140625 4.046875 C13.11291753 1.65648799 13.11291753 1.65648799 9.9609375 1.390625 C8.18589844 1.32101563 8.18589844 1.32101563 6.375 1.25 C5.18648438 1.19328125 3.99796875 1.1365625 2.7734375 1.078125 C1.85820312 1.05234375 0.94296875 1.0265625 0 1 C0 0.67 0 0.34 0 0 Z " fill="#73777B" transform="translate(334,226)"/>
<path d="M0 0 C2.97 0 5.94 0 9 0 C9 0.99 9 1.98 9 3 C6.1875 3.1875 6.1875 3.1875 3 3 C2.01 2.01 1.02 1.02 0 0 Z " fill="#0C74BA" transform="translate(131,174)"/>
<path d="M0 0 C0.66 0 1.32 0 2 0 C1.67 1.65 1.34 3.3 1 5 C0.34 5 -0.32 5 -1 5 C-1 5.66 -1 6.32 -1 7 C-2.32 6.67 -3.64 6.34 -5 6 C-3.625 4 -3.625 4 -2 2 C-1.34 2 -0.68 2 0 2 C0 1.34 0 0.68 0 0 Z " fill="#1378AF" transform="translate(74,192)"/>
<path d="M0 0 C3.375 -0.125 3.375 -0.125 7 0 C7.66 0.66 8.32 1.32 9 2 C8.05125 2.309375 7.1025 2.61875 6.125 2.9375 C3.13919592 3.87394742 3.13919592 3.87394742 1 5 C0.67 3.35 0.34 1.7 0 0 Z " fill="#0B6DC0" transform="translate(143,177)"/>
<path d="M0 0 C0.33 0 0.66 0 1 0 C1 1.98 1 3.96 1 6 C0.01 6 -0.98 6 -2 6 C-2 7.65 -2 9.3 -2 11 C-2.66 10.67 -3.32 10.34 -4 10 C-3.52449439 8.51965236 -3.04448784 7.04074979 -2.5625 5.5625 C-2.29566406 4.73878906 -2.02882812 3.91507813 -1.75390625 3.06640625 C-1 1 -1 1 0 0 Z " fill="#1077A8" transform="translate(62,208)"/>
<path d="M0 0 C0.33 0.66 0.66 1.32 1 2 C-0.4726862 5.27263601 -1.42695432 6.72014048 -4.6875 8.3125 C-5.450625 8.539375 -6.21375 8.76625 -7 9 C-6.21625 8.2575 -5.4325 7.515 -4.625 6.75 C-2.43495469 4.45566682 -1.17268614 2.87841142 0 0 Z " fill="#016DD2" transform="translate(135,213)"/>
<path d="M0 0 C0.66 0.33 1.32 0.66 2 1 C0.35 2.98 -1.3 4.96 -3 7 C-3.66 6.67 -4.32 6.34 -5 6 C-3.63016497 2.83884224 -3.0109362 2.0072908 0 0 Z " fill="#AEB1B3" transform="translate(358,229)"/>
<path d="M0 0 C2.97 0.495 2.97 0.495 6 1 C5.67 1.99 5.34 2.98 5 4 C2.03 3.505 2.03 3.505 -1 3 C-0.67 2.01 -0.34 1.02 0 0 Z " fill="#055ECD" transform="translate(161,187)"/>
</svg>
